<?xml version="1.0" standalone="no"?>
<!DOCTYPE svg PUBLIC "-//W3C//DTD SVG 20010904//EN"
 "http://www.w3.org/TR/2001/REC-SVG-20010904/DTD/svg10.dtd">
<svg version="1.0" xmlns="http://www.w3.org/2000/svg"
 width="512.000000pt" height="512.000000pt" viewBox="0 0 512.000000 512.000000"
 preserveAspectRatio="xMidYMid meet">

<g transform="translate(0.000000,512.000000) scale(0.100000,-0.100000)"
fill="#000000" stroke="none">
<path d="M825 4521 c-85 -21 -166 -88 -207 -169 l-23 -47 0 -605 c0 -600 0
-605 22 -652 31 -68 99 -131 168 -157 57 -21 64 -22 654 -19 l596 3 51 27 c56
30 102 77 136 141 l23 42 3 596 c3 579 2 598 -18 651 -27 74 -79 131 -148 165
l-57 28 -585 2 c-322 1 -598 -2 -615 -6z m1125 -821 l0 -530 -530 0 -530 0 0
530 0 530 530 0 530 0 0 -530z"/>
<path d="M3053 4512 c-94 -33 -168 -108 -192 -194 -9 -32 -11 -202 -9 -643 l3
-600 27 -47 c15 -25 49 -65 74 -87 83 -73 75 -72 740 -69 576 3 590 3 634 24
60 29 117 87 149 154 l26 55 0 595 c0 589 0 595 -22 642 -30 66 -95 132 -156
159 l-52 24 -585 2 c-541 2 -589 1 -637 -15z m1155 -814 l2 -528 -530 0 -530
0 0 530 0 530 528 -2 527 -3 3 -527z"/>
<path d="M783 2254 c-60 -22 -127 -86 -160 -152 l-28 -57 0 -600 0 -600 24
-52 c27 -61 93 -126 159 -156 47 -22 53 -22 642 -22 l595 0 56 26 c66 31 120
84 151 148 l23 46 3 589 c3 665 4 657 -69 740 -22 25 -62 59 -87 74 l-47 27
-610 2 c-519 1 -616 0 -652 -13z m1167 -814 l0 -530 -527 2 -528 3 -3 528 -2
527 530 0 530 0 0 -530z"/>
<path d="M3441 2250 c-40 -9 -117 -39 -170 -65 -82 -41 -110 -62 -192 -144
-86 -86 -102 -108 -147 -201 -61 -128 -82 -216 -82 -353 0 -384 275 -704 660
-767 153 -25 336 5 480 81 l74 39 116 -114 c123 -121 162 -144 226 -131 47 8
101 58 115 106 22 70 2 108 -127 239 l-115 117 40 74 c208 387 41 881 -362
1069 -149 70 -354 90 -516 50z m330 -300 c159 -49 280 -179 324 -345 41 -160
-7 -329 -129 -451 -155 -154 -373 -186 -567 -83 -233 124 -316 408 -192 653
31 62 124 156 183 186 121 62 262 77 381 40z"/>
</g>
</svg>
